<svg id="Layer_1" data-name="Layer 1" xmlns="http://www.w3.org/2000/svg" viewBox="0 0 2595.93 1509.36"><defs><style>.cls-1{fill:#806b47;}.cls-2{fill:#776749;}.cls-3{fill:#fff;}</style></defs><path class="cls-1" d="M1964.23,540.6h-36.12v3.67h12V610c0,15.83-1.58,33.74-20.53,47l1.85,3.17c20.64-7.11,30.71-22.36,30.71-46.56V544.27h12.11Z"/><path class="cls-1" d="M1920.51,662.63l-3.61-6.17,1.51-1.06c18.16-12.76,19.68-30.14,19.68-45.42V546.27h-12V538.6h40.12v7.67h-12.11v67.37c0,25.17-10.49,41-32.06,48.45Zm1.69-5,.1.17c18.71-7,27.82-21.48,27.82-44.12v-71h-8V610C1942.09,625.85,1940.52,643.85,1922.2,657.59Z"/><path class="cls-1" d="M2090.59,544.27h11.14V540.6h-27.2v3.67h12.13v52.56c0,24.78-9.26,37.34-27.52,37.34s-25.61-10.87-25.61-37.61V544.27h12V540.6h-36.19v3.67h12v51.56c0,38.1,20.28,42.49,35.52,42.49,14.07,0,33.7-4.39,33.7-42.49Z"/><path class="cls-1" d="M2056.89,640.32c-9.28,0-37.52,0-37.52-44.49V546.27h-12V538.6h40.19v7.67h-12v50.29c0,25.63,6.62,35.61,23.61,35.61,17.17,0,25.52-11.56,25.52-35.34V546.27h-12.13V538.6h31.21v7.67h-11.15v49.56C2092.59,625.77,2080.92,640.32,2056.89,640.32Zm-33.52-97.72v53.23c0,35.89,17.92,40.49,33.52,40.49A48.91,48.91,0,0,0,2063,636a36.24,36.24,0,0,1-3.83.19c-19.36,0-27.61-11.85-27.61-39.61v-54Z"/><path class="cls-1" d="M2208.41,613.09c0-15.81-12.51-23.46-26.44-30.46-.95-.5-2-1-3.15-1.54-8.43-4.09-21.11-10.27-21.11-20,0-9.31,6.22-18.44,20.12-18.72,16.26-.3,22.45,5.3,22.45,5.3v4.56h3.64v-6.35c-8.93-5.28-17-7.65-25.94-7.65-14.81,0-30.6,6.25-30.6,23.84,0,18.34,11.36,24.74,22,29.3l.84.38c11.17,4.7,28,11.81,28,25.81,0,10.25-9.34,17.23-24.33,16.61-19-.75-22.43-5.63-22.43-5.63v-5.17h-3.66v7.34c7.11,4.94,16.69,7.61,27.08,7.61,21.6,0,33.52-9,33.52-25.23"/><path class="cls-1" d="M2174.89,640.32c-10.8,0-20.83-2.83-28.22-8l-.86-.59V621.37h7.66v6.34c1.26,1,6.21,3.9,20.51,4.46,7.92.33,14.42-1.56,18.34-5.33a12.54,12.54,0,0,0,3.91-9.28c0-12.69-16.11-19.48-26.77-24l-.87-.38c-12.05-5.17-23.21-12.52-23.21-31.14,0-8.69,3.68-15.67,10.66-20.2,5.61-3.64,13.4-5.64,21.94-5.64,9.37,0,17.69,2.44,27,7.93l1,.58v9.49h-7.64v-5.55c-1.85-1.21-7.73-4.32-19.22-4.32h-1.19c-13.41.26-18.16,9.18-18.16,16.72,0,8.5,12,14.34,20,18.2,1.24.58,2.27,1.07,3.21,1.57,13.9,7,27.51,15.25,27.51,32.23C2210.41,630.4,2197.46,640.32,2174.89,640.32Zm-10.14-4.92a54.79,54.79,0,0,0,10.14.92c26.05,0,31.52-12.63,31.52-23.23,0-14.72-12-22-25.34-28.67-.9-.48-1.89-.95-3.1-1.52-8.88-4.31-22.26-10.81-22.26-21.81,0-10.09,6.82-20.42,22.08-20.72,1.67,0,3.23,0,4.7.08a44.66,44.66,0,0,0-4.51-.22c-13.83,0-28.6,5.74-28.6,21.84,0,17.12,10.28,22.95,20.81,27.47l.86.37c11.6,4.9,29.18,12.31,29.18,27.65a16.47,16.47,0,0,1-5.14,12.17c-4.71,4.52-12.26,6.8-21.27,6.44C2170.32,636,2167.32,635.76,2164.75,635.4Z"/><polygon class="cls-1" points="2330.31 543.77 2330.31 552.23 2333.97 552.23 2333.97 540.6 2256.55 540.6 2256.55 552.23 2260.22 552.23 2260.22 543.77 2289.21 543.77 2289.21 632.31 2277.17 632.31 2277.17 635.96 2313.37 635.96 2313.37 632.31 2301.33 632.31 2301.33 543.77 2330.31 543.77"/><path class="cls-1" d="M2315.37,638h-40.2v-7.65h12V545.77h-25v8.46h-7.68V538.6H2336v15.63h-7.66v-8.46h-25v84.54h12Zm-24.16-4h8.12V542.6h-8.12Z"/><path class="cls-1" d="M1931.54,790.08h-11.75v3.68h35.77v-3.68h-11.87v-88.5h14.24c14.62,0,22.36,7.71,22.36,22.36a22.54,22.54,0,0,1-22.63,22.38h-5.24v4.15l22.71,39.95v3.34h24.42v-3.34h-8l-3.72-5.12-18-29.52-12.08-6h5.76c14.07,0,28.34-8.88,28.34-25.82,0-16.72-9.88-25.51-28.62-25.51h-43.7v3.15h12Z"/><path class="cls-1" d="M2001.55,795.76h-28.42V791l-22.71-40v-2.68l-1.13-.56h1.13v-3.44h7.24a20.55,20.55,0,0,0,20.63-20.38c0-13.51-6.85-20.36-20.36-20.36h-12.24v84.5h11.87v7.68h-39.77v-7.68h11.75v-84.5h-12v-7.15h45.7c19.74,0,30.62,9.77,30.62,27.51a25.92,25.92,0,0,1-9.63,20.81,32.75,32.75,0,0,1-18.16,6.91l5.18,2.58,18.28,30,3.07,4.23h8.93Zm-24.42-4h13l-3.91-5.42-17.72-29-13.75-6.85,22.42,39.43Zm-43.59,0h8.15V700.43h-8.15Zm29.54-44h.46c13.09,0,26.34-8.18,26.34-23.82,0-14.75-8-22.63-23.81-23.44,10.53,2.61,16.22,10.7,16.22,23.44A24.68,24.68,0,0,1,1963.08,747.76Z"/><polygon class="cls-1" points="2056.27 790.56 2044.29 790.56 2044.29 793.76 2112.96 793.76 2112.96 780.58 2109.32 780.58 2109.32 790.56 2068.4 790.56 2068.4 744.72 2092.06 744.72 2092.06 756.32 2095.74 756.32 2095.74 729.79 2092.06 729.79 2092.06 741.38 2068.4 741.38 2068.4 701.55 2106.78 701.55 2106.78 706.82 2110.44 706.82 2110.44 698.38 2044.29 698.38 2044.29 701.55 2056.27 701.55 2056.27 790.56"/><path class="cls-1" d="M2115,795.76h-72.67v-7.2h12v-85h-12v-7.17h70.15v12.44h-7.66v-5.27H2070.4v35.83h19.66V727.79h7.68v30.53h-7.68v-11.6H2070.4v41.84h36.92v-10H2115Zm-56.69-4h8.13V700.38h-8.13Z"/><path class="cls-1" d="M2210.69,698.24h-10.32L2166.09,790h-9.6v3.74h30.85V790h-16.6l10.73-29.32h38.64L2230.29,790h-13.84v3.81h37.15V790h-10Zm-28,59.28,18.93-50.28,2.57,7.52L2219,757.52Z"/><path class="cls-1" d="M2255.6,795.76h-41.15V788h13l-8.78-25.25h-35.82L2173.6,788h15.74v7.74h-34.85V788h10.22L2199,696.24h13.12l33,91.71h10.55Zm-22.57-4h9.14l-32.89-91.52h-7.52l-34.18,91.52h.4l12.09-33.06h.08l21.61-57.39,4.36,12.81,15.35,44.58h.06Zm-47.41-36.24h30.52l-14.57-42.36Z"/><polygon class="cls-1" points="2332.55 702.05 2332.55 698.43 2296.33 698.43 2296.33 702.05 2308.37 702.05 2308.37 790.56 2296.33 790.56 2296.33 793.76 2364.79 793.76 2364.79 780.55 2361.14 780.55 2361.14 790.56 2320.53 790.56 2320.53 702.05 2332.55 702.05"/><path class="cls-1" d="M2366.79,795.76h-72.46v-7.2h12V704.05h-12v-7.62h40.22v7.62h-12v84.51h36.61v-10h7.65Zm-56.42-4h8.16V700.43h-8.16Z"/><polygon class="cls-1" points="1931.54 947.9 1919.56 947.9 1919.56 951.1 1988.24 951.1 1988.24 937.91 1984.58 937.91 1984.58 947.9 1943.69 947.9 1943.69 902.07 1967.35 902.07 1967.35 913.67 1971 913.67 1971 887.15 1967.35 887.15 1967.35 898.75 1943.69 898.75 1943.69 858.91 1982.07 858.91 1982.07 864.14 1985.73 864.14 1985.73 855.74 1919.56 855.74 1919.56 858.91 1931.54 858.91 1931.54 947.9"/><path class="cls-1" d="M1990.24,953.1h-72.68v-7.2h12v-85h-12v-7.17h70.17v12.41h-7.66v-5.24h-34.38v35.84h19.66v-11.6H1973v30.52h-7.65v-11.6h-19.66V945.9h36.89v-10h7.66Zm-56.7-4h8.15V857.74h-8.15Z"/><path class="cls-1" d="M2097.56,928.21c0-15.79-12.51-23.42-26.44-30.43-1-.51-2-1-3.14-1.59-8.44-4.05-21.15-10.24-21.15-20,0-9.33,6.22-18.45,20.13-18.71,16.27-.32,22.47,5.27,22.47,5.27v4.56h3.63V861c-8.93-5.31-16.95-7.68-25.93-7.68-14.82,0-30.6,6.28-30.6,23.89,0,18.31,11.33,24.73,22,29.28l.85.39c11.15,4.7,28,11.81,28,25.78,0,10.25-9.31,17.21-24.33,16.65-19.05-.77-22.42-5.68-22.42-5.68v-5.16h-3.68v7.39c7.12,4.89,16.69,7.6,27.08,7.6,21.63,0,33.55-9,33.55-25.27"/><path class="cls-1" d="M2064,955.48c-10.73,0-20.75-2.82-28.21-8l-.87-.6V936.49h7.68v6.33c1.25,1,6.18,3.93,20.5,4.51,7.93.3,14.45-1.61,18.35-5.37a12.6,12.6,0,0,0,3.9-9.28c0-12.67-16.1-19.45-26.76-23.94l-.9-.41c-12-5.13-23.17-12.46-23.17-31.1,0-8.7,3.68-15.69,10.65-20.22,5.62-3.65,13.41-5.67,22-5.67,9.38,0,17.69,2.46,26.95,8l1,.58v9.48h-7.63v-5.55c-1.92-1.25-8.14-4.52-20.43-4.28-13.41.25-18.17,9.16-18.17,16.71,0,8.53,12.53,14.55,20,18.15l1.66.84,1.55.78c13.9,7,27.51,15.26,27.51,32.2C2099.56,945.54,2086.6,955.48,2064,955.48Zm-10.27-5a53.73,53.73,0,0,0,10.27,1c26.07,0,31.55-12.65,31.55-23.27,0-14.68-12-21.92-25.34-28.64l-1.51-.77-1.66-.83c-8.27-4-22.22-10.68-22.22-21.73,0-10.1,6.83-20.42,22.09-20.71,2,0,3.81,0,5.51.12a44.12,44.12,0,0,0-5.3-.31c-13.83,0-28.6,5.75-28.6,21.89,0,17.13,10.26,22.95,20.78,27.44l.89.4c11.58,4.88,29.16,12.29,29.16,27.61a16.5,16.5,0,0,1-5.12,12.16c-4.7,4.52-12.27,6.83-21.29,6.49A90.5,90.5,0,0,1,2053.74,950.52Zm-14.81-5.71.09.05a.42.42,0,0,1-.06-.08l0,0Z"/><polygon class="cls-1" points="2219.46 858.92 2219.46 867.36 2223.08 867.36 2223.08 855.74 2145.67 855.74 2145.67 867.36 2149.34 867.36 2149.34 858.92 2178.32 858.92 2178.32 947.42 2166.3 947.42 2166.3 951.1 2202.51 951.1 2202.51 947.42 2190.47 947.42 2190.47 858.92 2219.46 858.92"/><path class="cls-1" d="M2204.5,953.1h-40.2v-7.68h12v-84.5h-25v8.44h-7.67V853.74h81.41v15.62h-7.62v-8.44h-25v84.5h12Zm-24.17-4h8.14V857.74h-8.14Z"/><path class="cls-1" d="M2317.36,855.59H2307l-34.28,91.8h-9.6v3.69H2294v-3.69h-16.62l10.76-29.33h38.59L2337,947.31H2323.1v3.77h37.14v-3.77h-9.94Zm-28,59.27,19-50.29,2.56,7.54,14.72,42.75Z"/><path class="cls-1" d="M2362.24,953.08H2321.1v-7.77h13l-8.82-25.25h-35.77l-9.29,25.33H2296v7.69h-34.85v-7.69h10.22l34.27-91.8h13.13l.47,1.32,32.46,90.4h10.54Zm-22.56-4h9.13L2316,857.59h-7.53l-34.16,91.49h.37l12.85-34.93,20.93-55.5,4.36,12.82,15.35,44.59h0Zm-47.44-36.22h30.54l-14.57-42.36Z"/><polygon class="cls-1" points="2474.51 858.92 2474.51 867.36 2478.16 867.36 2478.16 855.74 2400.73 855.74 2400.73 867.36 2404.4 867.36 2404.4 858.92 2433.39 858.92 2433.39 947.42 2421.35 947.42 2421.35 951.1 2457.57 951.1 2457.57 947.42 2445.53 947.42 2445.53 858.92 2474.51 858.92"/><path class="cls-1" d="M2459.57,953.1h-40.22v-7.68h12v-84.5h-25v8.44h-7.67V853.74h81.43v15.62h-7.65v-8.44h-25v84.5h12Zm-24.18-4h8.14V857.74h-8.14Z"/><polygon class="cls-1" points="2537.23 947.9 2525.25 947.9 2525.25 951.1 2593.93 951.1 2593.93 937.91 2590.27 937.91 2590.27 947.9 2549.38 947.9 2549.38 902.07 2573.06 902.07 2573.06 913.67 2576.68 913.67 2576.68 887.15 2573.06 887.15 2573.06 898.75 2549.38 898.75 2549.38 858.91 2587.75 858.91 2587.75 864.14 2591.41 864.14 2591.41 855.74 2525.25 855.74 2525.25 858.91 2537.23 858.91 2537.23 947.9"/><path class="cls-1" d="M2595.93,953.1h-72.68v-7.2h12v-85h-12v-7.17h70.16v12.41h-7.66v-5.24h-34.37v35.84h19.68v-11.6h7.62v30.52h-7.62v-11.6h-19.68V945.9h36.89v-10h7.66Zm-56.7-4h8.15V857.74h-8.15Z"/><path class="cls-1" d="M57.9,858.07a7.37,7.37,0,0,0,7.69-7.53,7.59,7.59,0,0,0-7.69-7.66,7.51,7.51,0,0,0-7.53,7.66,7.35,7.35,0,0,0,7.53,7.53"/><path class="cls-1" d="M57.9,860.07a9.31,9.31,0,0,1-9.53-9.53,9.61,9.61,0,1,1,9.53,9.53Zm0-15.19a5.54,5.54,0,0,0-5.53,5.66,5.61,5.61,0,0,0,11.22,0A5.62,5.62,0,0,0,57.9,844.88Z"/><path class="cls-1" d="M79.69,858.07a7.35,7.35,0,0,0,7.52-7.53,7.5,7.5,0,0,0-7.52-7.66,7.41,7.41,0,0,0-7.53,7.66,7.2,7.2,0,0,0,7.53,7.53"/><path class="cls-1" d="M79.69,860.07a9.22,9.22,0,0,1-9.53-9.53,9.38,9.38,0,0,1,9.53-9.66,9.49,9.49,0,0,1,9.52,9.66A9.32,9.32,0,0,1,79.69,860.07Zm0-15.19a5.41,5.41,0,0,0-5.53,5.66,5.23,5.23,0,0,0,5.53,5.53,5.35,5.35,0,0,0,5.52-5.53A5.47,5.47,0,0,0,79.69,844.88Z"/><path class="cls-1" d="M197,964.54a7.43,7.43,0,0,0-7.52,7.66,7.2,7.2,0,0,0,7.52,7.52,7.3,7.3,0,0,0,7.53-7.52,7.5,7.5,0,0,0-7.53-7.66"/><path class="cls-1" d="M197,981.72a9.2,9.2,0,0,1-9.52-9.52,9.38,9.38,0,0,1,9.52-9.66,9.49,9.49,0,0,1,9.53,9.66A9.32,9.32,0,0,1,197,981.72Zm0-15.18a5.46,5.46,0,0,0-5.52,5.66,5.23,5.23,0,0,0,5.52,5.52,5.29,5.29,0,0,0,5.53-5.52A5.47,5.47,0,0,0,197,966.54Z"/><path class="cls-1" d="M218.71,964.54a7.57,7.57,0,0,0-7.66,7.66,7.61,7.61,0,0,0,15.21,0,7.51,7.51,0,0,0-7.55-7.66"/><path class="cls-1" d="M218.71,981.72a9.38,9.38,0,0,1-9.66-9.52,9.61,9.61,0,1,1,19.21,0A9.32,9.32,0,0,1,218.71,981.72Zm0-15.18a5.53,5.53,0,0,0-5.66,5.66,5.35,5.35,0,0,0,5.66,5.52,5.29,5.29,0,0,0,5.55-5.52A5.48,5.48,0,0,0,218.71,966.54Z"/><path class="cls-1" d="M354.82,858.07a7.18,7.18,0,0,0,7.52-7.35,7.51,7.51,0,0,0-7.52-7.86,7.62,7.62,0,0,0-7.53,7.86,7.29,7.29,0,0,0,7.53,7.35"/><path class="cls-1" d="M333.22,858.07a7.25,7.25,0,0,0,7.5-7.35,7.61,7.61,0,1,0-15.21,0c0,4.27,3.26,7.35,7.71,7.35"/><path class="cls-1" d="M570,842.32h-26.6v4h13.34V950.74H570V842.21s0,.11,0,.11"/><path class="cls-1" d="M233,880.93H206.42V885h13.3v43.15c0,10.35-4.19,15.24-13.11,15.39H161c-12.06,0-18.7-15.1-18.7-25.53V885h13.3v-4.08h-13.3v-.06l-.08.06h-26.5V885h13.19v43.15c0,10.5-4.15,15.39-13.11,15.39H19.3c-7.9-.45-11.9-5-11.9-13.44v-40.8H20.83v-4H2v43.87c0,14.35,8.12,21.58,24.22,21.58H120c10.62,0,17.84-4.67,20.76-13.2,4.48,7.93,10.59,12.22,19.13,13.2h49.49c14.63,0,23.73-8.63,23.73-22.56V885H246.3v-4.08Z"/><path class="cls-1" d="M209.39,952.72l-49.72,0a25.32,25.32,0,0,1-18.58-11c-3.88,7.11-11.23,11-21.08,11H26.23C9.08,952.72,0,944.56,0,929.14V883.27H22.83v8H9.4v38.8c0,7.4,3.16,11,10,11.44h96.39c7.79,0,11.11-4,11.11-13.39V887H113.67v-8.08h27.8l2.7-2.16,0,2.16h13.34V887h-13.3v31c0,9.82,6.35,23.53,16.7,23.53h45.66c7.78-.13,11.11-4.13,11.11-13.39V887h-13.3v-8.08H248.3V887H235.12v41.15C235.12,943.08,225,952.72,209.39,952.72Zm-49.37-4h49.37c13.61,0,21.73-7.69,21.73-20.56V883H244.3v-.08H208.42V883h13.3v45.15c0,11.37-5.07,17.22-15.08,17.39H161c-13.33,0-20.7-16.28-20.7-27.53V883h13.3v-.08H117.67V883h13.19v45.15c0,11.54-5.08,17.39-15.11,17.39H19.19c-9-.51-13.79-5.85-13.79-15.44v-42.8l13.43,0H4v41.87c0,13.17,7.27,19.58,22.22,19.58H120c9.69,0,16.22-4.1,18.87-11.85l1.44-4.22,2.19,3.89C146.68,943.92,152.24,947.79,160,948.72Z"/><path class="cls-1" d="M492.51,885h13.33v43.17c0,10.51-4.5,15.4-14.1,15.4-11.68,0-18.86-14.89-18.86-25.56V880.87s-.07.06-.09.06v-.06H446.23V885h13.41v43.22c0,10.51-4.47,15.4-14.07,15.4-11.44,0-17.81-13.84-18.51-23.12V880.93H400.48V885h13.29v43.17c0,10.51-4.33,15.4-13.74,15.4H369.24c-11.7,0-18.85-14.89-18.85-25.56V880.93H323.74V885H337v43.17c0,10.37-4.2,15.25-13.27,15.4h-26c-7.79-.48-11.73-5-11.73-13.47l0-87.79v-.11s-.13.11-.18.11H259.39v4h13.34v82.77c0,14.33,8.08,21.6,24,21.6h29.91c11,0,19.06-5,22.21-13.56,4.67,7.89,10.86,12.43,19.19,13.56h35.42c10.67,0,18.94-5,22.23-13.18,5.28,8,11.62,13.18,23.78,13.18,10.72,0,18.84-5.19,21.94-13.78,6.17,9.74,13.29,13.78,23.89,13.78,14.65,0,23.75-8.65,23.75-22.56V880.93H492.51Z"/><path class="cls-1" d="M495.33,952.74c-10.23,0-17.45-3.55-23.54-11.74-4.15,7.42-12.22,11.74-22.29,11.74-12.33,0-18.94-5.34-23.48-11.3-4.3,7.14-12.47,11.3-22.53,11.3l-35.69,0c-7.69-1-13.82-4.79-18.62-11.44-4.19,7.33-12.2,11.46-22.51,11.46H296.76c-17,0-26-8.16-26-23.6V848.37H257.4v-8h27.73L288,838l0,92.15c0,7.4,3.11,11,9.79,11.47h26c7.89-.13,11.27-4.14,11.27-13.4V887H321.74v-8.08h30.62l0,2V918c0,9.6,6.56,23.56,16.85,23.56H400c8.23,0,11.74-4,11.74-13.4V887H398.48v-8.08h28.09l2.47-1.28,0,3.28v39.45c.7,8.91,6.81,21.2,16.51,21.2,8.46,0,12.07-4,12.07-13.4V887H444.23v-8.09h27.9l2.76-2.47V918c0,9.6,6.57,23.56,16.86,23.56,8.48,0,12.1-4,12.1-13.4V887H490.51v-8.08h30.57v49.25C521.08,943.1,511,952.74,495.33,952.74ZM471,932.44l2.18,3.45c5.78,9.12,12.21,12.85,22.2,12.85,13.62,0,21.75-7.69,21.75-20.56V882.93H494.51V883h13.33v45.17c0,11.54-5.42,17.4-16.1,17.4-12.92,0-20.86-16.06-20.86-27.56V882.93h-.09v-.06H448.23V883h13.41v45.22c0,11.54-5.4,17.4-16.07,17.4-12.69,0-19.74-14.9-20.51-25V882.93H402.48V883h13.29v45.17c0,11.54-5.3,17.4-15.74,17.4H369.24c-6,0-11.47-3.45-15.49-9.7A34.42,34.42,0,0,1,348.39,918V882.93H325.74V883H339v45.17c0,11.38-5.12,17.23-15.23,17.4H297.56C288.65,945,284,939.69,284,930.11l0-85.79H261.4v0h13.33v84.77c0,13.19,7.21,19.6,22,19.6h29.91c10.05,0,17.46-4.47,20.34-12.25l1.46-3.94,2.14,3.62c4.38,7.41,10.14,11.52,17.59,12.57h35.29c9.76,0,17.38-4.46,20.38-11.92l1.42-3.54,2.1,3.18c4.87,7.37,10.5,12.28,22.11,12.28,9.75,0,17.25-4.66,20.06-12.46Z"/><path class="cls-1" d="M494.34,807a7.62,7.62,0,0,0-7.72,7.69,7.35,7.35,0,0,0,7.72,7.51,7.28,7.28,0,0,0,7.53-7.51,7.55,7.55,0,0,0-7.53-7.69"/><path class="cls-1" d="M472.56,807a7.44,7.44,0,0,0-7.53,7.69,7.53,7.53,0,0,0,15.05,0,7.54,7.54,0,0,0-7.52-7.69"/><path class="cls-1" d="M543.54,717.2v4h13.29v37.8c0,17.52-1.79,37.37-22.75,52.11l2,3.51c22.88-7.89,34-24.77,34-51.57V721.25h13.41v-4Z"/><path class="cls-1" d="M482.19,721h13.14v49.44c0,10.36-4.19,15.27-13.11,15.39H161.12c-12.07,0-18.71-15.07-18.71-25.55V688.8h13.3v-4.07H115.84v4.07H129v81.65c0,10.5-4.18,15.37-13.1,15.37H19.3c-7.89-.43-11.9-5-11.9-13.42V730.75H20.84v-4H2v44.69C2,785.75,10.15,793,26.23,793h93.94c10.61,0,17.85-4.67,20.77-13.21,4.5,7.93,10.58,12.24,19.14,13.21H485c14.64,0,23.74-8.64,23.74-22.58V721h13.44v-4h-40Z"/><path class="cls-1" d="M485,795H159.86a25.36,25.36,0,0,1-18.6-11c-3.88,7.11-11.23,11-21.09,11H26.23C9.07,795,0,786.84,0,771.39V724.7H22.84v8H9.4V772.4c0,7.4,3.17,11,10,11.42h96.57c7.78,0,11.1-4,11.1-13.37V690.8H113.84v-8.07h43.87v8.07h-13.3v69.47c0,15.16,9.88,23.55,16.71,23.55h321.1c7.78-.1,11.11-4.11,11.11-13.39V723H480.19v-8h44v8H510.75v47.44C510.75,785.36,500.64,795,485,795ZM160.2,791H485c13.61,0,21.74-7.69,21.74-20.58V719h13.44v0h-36v0h13.14v51.44c0,11.41-5.08,17.26-15.09,17.39H161.12c-6.1,0-11.64-3.48-15.58-9.79a35,35,0,0,1-5.13-17.76V686.8h13.3v-.07H117.84v.07H131v83.65c0,11.52-5.08,17.37-15.1,17.37H19.19c-9-.49-13.79-5.82-13.79-15.42V728.75l13.44,0H4v42.69C4,784.59,11.27,791,26.23,791h93.94c9.7,0,16.22-4.1,18.88-11.86l1.43-4.2,2.2,3.86C146.88,786.22,152.46,790.1,160.2,791Z"/><path class="cls-1" d="M57.9,545.56A7.37,7.37,0,0,0,65.59,538a7.6,7.6,0,0,0-7.69-7.65A7.51,7.51,0,0,0,50.37,538a7.36,7.36,0,0,0,7.53,7.54"/><path class="cls-1" d="M57.9,547.56A9.32,9.32,0,0,1,48.37,538a9.61,9.61,0,1,1,9.53,9.54Zm0-15.19A5.53,5.53,0,0,0,52.37,538a5.61,5.61,0,0,0,11.22,0A5.61,5.61,0,0,0,57.9,532.37Z"/><path class="cls-1" d="M79.69,545.56A7.36,7.36,0,0,0,87.21,538a7.5,7.5,0,0,0-7.52-7.65A7.42,7.42,0,0,0,72.16,538a7.19,7.19,0,0,0,7.53,7.54"/><path class="cls-1" d="M79.69,547.56A9.22,9.22,0,0,1,70.16,538a9.38,9.38,0,0,1,9.53-9.65A9.49,9.49,0,0,1,89.21,538,9.32,9.32,0,0,1,79.69,547.56Zm0-15.19A5.41,5.41,0,0,0,74.16,538a5.19,5.19,0,0,0,5.53,5.54A5.35,5.35,0,0,0,85.21,538,5.53,5.53,0,0,0,79.69,532.37Z"/><path class="cls-1" d="M538.47,658.72a7.52,7.52,0,1,0,15,0,7.52,7.52,0,1,0-15,0"/><path class="cls-1" d="M573.9,630.08c1.26-30.58-17.37-65.69-48.48-65-12.12.25-25.31,7.38-32.19,15l1.11,8.53,4.86-.66-.8-6.08A33.45,33.45,0,0,1,525,572.32c18.44,1.59,35.61,22.87,33.5,57.76H417.67c-11.67,0-18.84-14.87-18.84-25.56l0-37.15H372.29v4.07h13.33v43.24c0,10.52-4.51,15.4-14.12,15.4-11.68,0-18.84-14.87-18.84-25.56V567.37l0,0v0H326.07v4.07h13.37v43.24c0,10.52-4.49,15.4-14.1,15.4-11.6,0-18.69-14.87-18.69-25.56V567.37H280.08v4.07h13.34v43.24c0,10.52-4.38,15.4-13.79,15.4H161.21c-12,0-18.7-15.11-18.7-25.56l0-33.08h13.4v-4.07h-40v4.07H129.1v43.24c0,10.52-4.15,15.4-13.1,15.4H19.29c-7.88-.46-11.9-5-11.9-13.42V576H20.88v-4.07H2v43.77c0,14.33,8.16,21.6,24.22,21.6h94c10.6,0,17.82-4.62,20.74-13.2,4.51,7.89,10.61,12.24,19.16,13.2H283.07c11.12,0,19.09-4.78,22.4-13.2,5.3,8,11.63,13.2,23.8,13.2,10.86,0,18.82-5.06,21.9-13.71,6,9.8,12.95,13.71,23.94,13.71s19.07-5,22.23-13.64c4.8,7.93,11.05,12.51,19.26,13.64H583.54v-7.18Z"/><path class="cls-1" d="M585.54,639.26l-169.21,0c-7.63-1-13.77-4.83-18.68-11.54-4.18,7.39-12.2,11.56-22.55,11.56s-17.69-3.51-23.59-11.6c-4.11,7.42-12,11.6-22.24,11.6-12.32,0-18.94-5.34-23.48-11.29-4.27,7.22-12.35,11.29-22.72,11.29l-123.14,0a25.31,25.31,0,0,1-18.59-11c-3.88,7.11-11.22,11-21.08,11h-94C9.07,639.26,0,631.09,0,615.66V569.89H7.39v0H22.88V578H9.39v38.7c0,7.37,3.17,11,10,11.42H116c7.78,0,11.1-4,11.1-13.4V573.44H113.87v-8.07h44v8.07h-13.4l0,31.08c0,9.84,6.36,23.56,16.7,23.56H279.63c8.26,0,11.79-4,11.79-13.4V573.44H278.08v-8.07h30.57v39.15c0,9.61,6.5,23.56,16.69,23.56,8.48,0,12.1-4,12.1-13.4V573.44H324.07v-8.07h27.66l2.89-3.48,0,5.48v37.15c0,9.61,6.56,23.56,16.84,23.56,8.49,0,12.12-4,12.12-13.4V573.44H370.29v-8.07h30.56l0,39.15c0,9.61,6.56,23.56,16.84,23.56h139c.92-25-9.69-51.86-31.78-53.76a31.93,31.93,0,0,0-24.34,8.27l.94,7.07-8.84,1.2-1.48-11.44.62-.68c6.84-7.56,20.59-15.36,33.63-15.63,11.68-.26,22.52,4.33,31.32,13.29,12,12.27,19.49,32.36,19.25,51.68h9.59Zm-168.8-4h164.8v-3.18h-9.72l.08-2.08c.78-18.9-6.31-38.84-18-50.79-8-8.16-17.83-12.34-28.38-12.1-11.53.24-23.68,6.94-30.13,13.65l.72,5.59.9-.12-.67-5,.62-.69a35.19,35.19,0,0,1,28.29-10.21c10,.86,19.47,7.17,26,17.3,7.13,11.13,10.37,25.85,9.36,42.57l-.12,1.88H417.67c-6,0-11.46-3.44-15.48-9.69a34.43,34.43,0,0,1-5.36-17.87l0-35.15H374.29v.07h13.33v45.24c0,11.55-5.43,17.4-16.12,17.4-6,0-11.47-3.44-15.48-9.69a34.43,34.43,0,0,1-5.36-17.87l0-35.15H328.07v.07h13.37v45.24c0,11.55-5.42,17.4-16.1,17.4-5.93,0-11.4-3.44-15.38-9.7a34.59,34.59,0,0,1-5.31-17.86V569.37H282.08v.07h13.34v45.24c0,11.55-5.32,17.4-15.79,17.4H161.21c-13.33,0-20.7-16.3-20.7-27.56l-.06-35.08h13.41v-.07h-36v.07H131.1v45.24c0,11.55-5.08,17.4-15.1,17.4H19.18c-8.89-.53-13.79-6-13.79-15.42V574H18.88v-.07H4v41.77c0,13.18,7.27,19.6,22.22,19.6h94c9.7,0,16.21-4.1,18.85-11.85l1.43-4.2,2.2,3.86c4.24,7.41,9.81,11.29,17.53,12.19h122.8c10.22,0,17.52-4.24,20.54-11.93l1.41-3.59,2.12,3.22c4.88,7.38,10.5,12.3,22.13,12.3,9.91,0,17.21-4.52,20-12.38l1.41-4,2.18,3.58c5.6,9.17,11.83,12.75,22.22,12.75,10.07,0,17.49-4.5,20.36-12.33l1.43-3.9,2.16,3.56C403.57,630.06,409.36,634.21,416.74,635.26Z"/><rect class="cls-2" x="718.75" y="41.89" width="1069.85" height="1445.49"/><path class="cls-3" d="M853.84,1196.33c88-31,130.76-96.72,130.76-200.68v-408l-23.47-38.67H1025l-5.5-9.32H884.58v9.32h52.13v430.8c0,69.13-3.68,166.16-86,211.29Z"/><path class="cls-3" d="M1177.74,539.62H1053.33l5.63,9.3h95.53c64.5,0,100,35.54,100,100,0,48.09-38.7,100-101.25,100H1132.7v15.19l108,178.21v9.33h93.12v-9.33h-36.54L1205,789.91l-60.8-30.39H1179c60.42,0,121.58-38,121.58-110.56,0-71.52-42.47-109.34-122.82-109.34"/><polygon class="cls-3" points="1323.99 942.41 1323.99 951.71 1629.12 951.71 1629.12 921.39 1621.62 921.39 1608.4 942.41 1434.45 942.41 1434.45 799.04 1410.22 759.23 1544.55 759.23 1544.55 809.65 1553.83 809.65 1553.83 700.92 1544.55 700.92 1544.55 749.3 1434.45 749.3 1434.45 548.94 1600.92 548.94 1610.62 563.41 1618.11 563.41 1618.11 539.62 1352.61 539.62 1352.61 548.94 1385.98 548.94 1385.98 942.41 1323.99 942.41"/><path class="cls-3" d="M1788.59,1509.36H712.27V0H1788.59ZM754.18,1467.51h992.51V41.89H718.75l35.43,58.51Z"/></svg>